<svg
  viewBox="0 0 1080 1920"
  fill="none"
  aria-hidden="true"
  class="absolute inset-0 h-full w-full"
  preserveAspectRatio="xMidYMid slice"
  xmlns="http://www.w3.org/2000/svg"
>
  <rect width="1080" height="1920" fill="#0F172A" />

  <defs>
    <pattern id="dotGrid" x="0" y="0" width="60" height="60" patternUnits="userSpaceOnUse">
      <circle cx="2" cy="2" r="1.5" fill="#60A5FA" fill-opacity="0.1" />
    </pattern>
  </defs>
  <rect width="1080" height="1920" fill="url(#dotGrid)" />

  <path d="M0 1920 V 1400 Q 540 1150, 1080 1500 V 1920 H 0 Z" fill="#1E3A8A" fill-opacity="0.5" />
  <path d="M-50 1920 V 1600 Q 400 1350, 1130 1750 V 1920 H -50 Z" fill="#3B82F6" fill-opacity="0.2" />

  <g stroke="#60A5FA" stroke-opacity="0.12" stroke-width="2" fill="none">
    <circle cx="200" cy="600" r="40" stroke-width="3" /> <circle cx="900" cy="1100" r="25" /> <circle cx="100" cy="1500" r="15" />
    <circle cx="800" cy="400" r="10" opacity="0.7" />
    <circle cx="450" cy="100" r="8" opacity="0.6" />
    <circle cx="950" cy="800" r="30" stroke-dasharray="4 4" /> <g transform="translate(850 700) rotate(45)"><line x1="-30" y1="0" x2="30" y2="0" /><line x1="0" y1="-30" x2="0" y2="30" /></g>
    <g transform="translate(150 1300) rotate(45)"><line x1="-20" y1="0" x2="20" y2="0" /><line x1="0" y1="-20" x2="0" y2="20" /></g>
    <g transform="translate(600 1600) rotate(20) scale(0.7)"><line x1="-30" y1="0" x2="30" y2="0" /><line x1="0" y1="-30" x2="0" y2="30" /></g>
    <g transform="translate(300 900) rotate(70) scale(0.5)"><line x1="-30" y1="0" x2="30" y2="0" stroke-width="4"/><line x1="0" y1="-30" x2="0" y2="30" stroke-width="4"/></g>

    <path d="M500 400 L530 450 H470 Z" transform="rotate(15 500 425)" />
    <path d="M950 1400 L970 1435 H930 Z" transform="rotate(-10 950 1417)" />
    <path d="M100 100 L130 150 H70 Z" transform="translate(200 0) rotate(40 100 125) scale(0.6)" />
    
    <rect x="0" y="0" width="40" height="40" transform="translate(700 100) rotate(45)" />
    <rect x="0" y="0" width="20" height="20" transform="translate(50 800) rotate(30)" opacity="0.7" />

    <rect x="0" y="0" width="30" height="30" transform="translate(400 1200) rotate(10)" />
    <rect x="0" y="0" width="50" height="50" transform="translate(850 1300) rotate(-5)" stroke-dasharray="8 4" />

    <g transform="translate(650 250)"><line x1="-15" y1="0" x2="15" y2="0" /><line x1="0" y1="-15" x2="0" y2="15" /></g>
    <g transform="translate(350 1700) scale(0.8)"><line x1="-15" y1="0" x2="15" y2="0" /><line x1="0" y1="-15" x2="0" y2="15" /></g>
  </g>

  <g fill="#60A5FA" fill-opacity="0.25">
    <g transform="translate(180 280) rotate(-10) scale(1.1)">
       <path d="M-70 -80 C -70 -160, 70 -160, 70 -80 C 70 -20, 10 0, 10 60 L -30 60 C -30 -20, 40 -40, 40 -80 C 40 -120, -40 -120, -40 -80 Z M -30 100 L 10 100 L 10 140 L -30 140 Z" />
    </g>
    <g transform="translate(880 220) scale(1.3)">
      <path d="M0 -30 L 20 0 L 0 30 L -20 0 Z" />
      <line x1="0" y1="-50" x2="0" y2="-70" stroke="#60A5FA" stroke-opacity="0.3" stroke-width="3" />
      <line x1="40" y1="0" x2="60" y2="0" stroke="#60A5FA" stroke-opacity="0.3" stroke-width="3" />
    </g>
  </g>

  <path d="M820 1720 L 880 1780 L 1020 1600" stroke="#60A5FA" stroke-width="18" stroke-linecap="butt" stroke-linejoin="miter" stroke-opacity="0.5" />
</svg>